# xmcd
#
# Track frame offsets:
#	150
#	11425
#	22575
#	34787
#	49162
#	63275
#	75887
#	92462
#	104700
#	115525
#	127375
#	139600
#	149537
#	165150
#	181625
#	191487
#	208525
#	221175
#	231262
#	243762
#	254325
#	266300
#	278925
#	291562
#
# Disc length: 4105 seconds
#
# Revision: 1
# Processed by: cddbd v1.5.1PL0 Copyright (c) Steve Scherf et al.
# Submitted via: CDex 1.50Beta5
#
DISCID=4b100718
DTITLE=Various Artist - BIG SUPER ARTIST BEST SELECTION
DYEAR=1900
DGENRE=Pop
TTITLE0=ビーチボーイズ/SURF'N USA
TTITLE1=The Beatles/I WANT TO HOLD YOUR HAND
TTITLE2=Mama's and Papa's/CALIFORNIA DREAMIN'
TTITLE3=サイモン&ガーファンクル/SCARBOROUGH FAIR/CANTICLE
TTITLE4=The Monkees/DAYDREAM BELIEVER
TTITLE5=エルヴィス・プレスリー/LOVE ME TENDER
TTITLE6=レイ・チャールズ/GEORGIA ON MY MIND
TTITLE7=ダイアナ・ロス&シュープリームス/I HEAR A SYMPHONY
TTITLE8=ビージーズ/MASSACHUSETTS
TTITLE9=スティービー・ワンダー/I WAS MADE TO LOVE HER
TTITLE10=The Beatles/MICHELLE
TTITLE11=レター・メン/SEALD WITH A KISS
TTITLE12=ルイ・アームストロング/LA VIE EN ROSE
TTITLE13=ビーチ・ボーイズ/GOOD VIBRATION
TTITLE14=エルヴィス・プレスリー/HEART BREAK HOTEL
TTITLE15=ドリス・デイ/SENTIMENTAL JOURNEY
TTITLE16=サラ・ヴォーン/A LOVER'S CONCERTO
TTITLE17=ビル・ヘイリー/ROCK AROUND THE CLOCK
TTITLE18=チャック・ベリー/JOHNNY B. GOODE
TTITLE19=モンキーズ/THEME FROM THE MONKEES
TTITLE20=チャビー・チェッカー/THE TWIST
TTITLE21=ダイアナ・ロス&シュープリームス/YOU CAN'T HURRY LOVE
TTITLE22=ボブ・ディラン/BLOWIN' IN THE WIND
TTITLE23=ローリング・ストーンズ/LET'S SPEND THE NIGHT TOGETHER
EXTD=
EXTT0=
EXTT1=
EXTT2=
EXTT3=
EXTT4=
EXTT5=
EXTT6=
EXTT7=
EXTT8=
EXTT9=
EXTT10=
EXTT11=
EXTT12=
EXTT13=
EXTT14=
EXTT15=
EXTT16=
EXTT17=
EXTT18=
EXTT19=
EXTT20=
EXTT21=
EXTT22=
EXTT23=
PLAYORDER=
